<svg xmlns="http://www.w3.org/2000/svg" viewBox="0 0 1440 320"><path fill="#fce44d" fill-opacity="1" d="M0,32L30,32C60,32,120,32,180,58.7C240,85,300,139,360,154.7C420,171,480,149,540,122.7C600,96,660,64,720,69.3C780,75,840,117,900,149.3C960,181,1020,203,1080,208C1140,213,1200,203,1260,197.3C1320,192,1380,192,1410,192L1440,192L1440,320L1410,320C1380,320,1320,320,1260,320C1200,320,1140,320,1080,320C1020,320,960,320,900,320C840,320,780,320,720,320C660,320,600,320,540,320C480,320,420,320,360,320C300,320,240,320,180,320C120,320,60,320,30,320L0,320Z"></path></svg>