<svg width="119" height="119" viewBox="0 0 119 119" fill="none" xmlns="http://www.w3.org/2000/svg">
<path d="M59.4508 1.61351C91.3096 1.61351 117.141 27.5096 117.141 59.4596C117.141 91.4096 91.3096 117.306 59.4508 117.306C27.592 117.306 1.76086 91.4096 1.76086 59.4596C1.76086 27.5096 27.592 1.61351 59.4508 1.61351Z" fill="#01A5A9" stroke="#2F4F4F" stroke-width="2"/>
<path d="M57.4093 27.202C75.1752 27.202 89.5819 41.6431 89.5819 59.4628C89.5819 77.2825 75.1752 91.7236 57.4093 91.7236C39.6434 91.7236 25.2367 77.2825 25.2367 59.4628C25.2367 41.6431 39.6434 27.202 57.4093 27.202Z" fill="#D3EDE6" stroke="#2F4F4F" stroke-width="2"/>
<line x1="55.8992" y1="118.306" x2="55.8992" y2="92.7204" stroke="#2F4F4F" stroke-width="2"/>
<line x1="55.8992" y1="28.2466" x2="55.8992" y2="2.66134" stroke="#2F4F4F" stroke-width="2"/>
</svg>
