<svg width="160" height="160" viewBox="0 0 160 160" fill="none" xmlns="http://www.w3.org/2000/svg">
<path d="M158.045 79.6148C158.045 123.035 122.939 158.23 79.6406 158.23C36.3418 158.23 1.23657 123.035 1.23657 79.6148C1.23657 36.1943 36.3418 0.999512 79.6406 0.999512C122.939 0.999512 158.045 36.1943 158.045 79.6148Z" fill="#FFD036" stroke="#2F4F4F" stroke-width="2"/>
<path d="M123.521 76.8447C123.521 101.148 103.873 120.845 79.6408 120.845C55.4088 120.845 35.7603 101.148 35.7603 76.8447C35.7603 52.5417 55.4088 32.8447 79.6408 32.8447C103.873 32.8447 123.521 52.5417 123.521 76.8447Z" fill="white" stroke="#2F4F4F" stroke-width="2"/>
<line x1="0.23645" y1="75.1533" x2="34.76" y2="75.1533" stroke="#2F4F4F" stroke-width="2"/>
<line x1="121.76" y1="75.1533" x2="156.283" y2="75.1533" stroke="#2F4F4F" stroke-width="2"/>
</svg>
