<svg width="97" height="148" viewBox="0 0 97 148" fill="none" xmlns="http://www.w3.org/2000/svg">
<line y1="-1" x2="155.721" y2="-1" transform="matrix(-0.341219 -0.939984 -0.9394 0.342823 53.505 147.47)" stroke="#2F4F4F" stroke-width="2"/>
<line y1="-1" x2="155.721" y2="-1" transform="matrix(-0.341219 -0.939984 -0.9394 0.342823 94.9335 147.47)" stroke="#2F4F4F" stroke-width="2"/>
<line y1="-1" x2="41.4282" y2="-1" transform="matrix(-1 0 0 1 77.7578 100.241)" stroke="#2F4F4F" stroke-width="2"/>
<line y1="-1" x2="41.4282" y2="-1" transform="matrix(-1 0 0 1 70.0762 76.3271)" stroke="#2F4F4F" stroke-width="2"/>
<line y1="-1" x2="41.4282" y2="-1" transform="matrix(-1 0 0 1 61.7906 52.7896)" stroke="#2F4F4F" stroke-width="2"/>
<line y1="-1" x2="41.4282" y2="-1" transform="matrix(-1 0 0 1 53.505 29.2505)" stroke="#2F4F4F" stroke-width="2"/>
<line y1="-1" x2="41.4282" y2="-1" transform="matrix(-1 0 0 1 86.043 122.396)" stroke="#2F4F4F" stroke-width="2"/>
</svg>
